<svg viewBox="0 0 400 400" fill="none" xmlns="http://www.w3.org/2000/svg">
<path d="M89.6712 111.552L130.012 133.832L56.4881 153.704L84.4303 112.948C85.6842 111.12 87.858 110.54 89.6712 111.552Z" fill="#E3E3E2"/>
<path d="M67.0673 203.569L139.13 184.092C139.604 183.964 139.899 183.413 139.79 182.861L130.095 134.249C130.05 134.019 129.851 133.876 129.654 133.929L56.5924 153.677C56.3937 153.729 56.2705 153.961 56.3172 154.191L66.0092 202.801C66.1205 203.354 66.5924 203.697 67.0673 203.569Z" fill="#E3E3E2"/>
<path d="M61.2551 153.641L95.7636 167.151L126.12 137.797L120.766 114.295C120.221 111.754 118.028 110.191 115.838 110.784L59.9496 125.889C57.734 126.488 56.355 129.064 56.8686 131.643L61.2551 153.641Z" fill="white"/>
<path d="M97.9473 163.178L139.244 179.952C139.665 182.063 138.536 184.171 136.723 184.661L69.4299 202.839C67.6167 203.329 65.8055 202.015 65.3842 199.904L65.3266 199.611L94.2117 164.231C95.1715 163.056 96.6329 162.644 97.9473 163.178Z" fill="#E3E3E2"/>
<path d="M93.9186 130.656L115.787 124.749L115.268 122.148L93.4009 128.056L93.9186 130.656Z" fill="#E3E3E2"/>
<path d="M68.651 144.777L117.165 131.672L116.581 128.735L68.0657 141.841L68.651 144.777Z" fill="#F8F8F9"/>
<path d="M70.0807 151.953L118.597 138.847L118.01 135.912L69.4955 149.017L70.0807 151.953Z" fill="#F8F8F9"/>
<path d="M72.2834 157.986L74.3191 158.756L115.281 148.29L119.439 144.197L119.356 143.495L70.9987 156.559L71.1924 157.531L72.2834 157.986Z" fill="#F8F8F9"/>
<path d="M86.331 163.459L104.679 158.502L109.076 154.22L81.6554 161.627L86.331 163.459Z" fill="#F8F8F9"/>
<path d="M99.4536 163.789C99.4427 163.828 99.992 164.089 100.996 164.525C102.088 164.984 103.525 165.589 105.264 166.32C108.876 167.811 113.877 169.832 119.412 172.027C124.95 174.224 129.969 176.181 133.611 177.568C135.372 178.225 136.828 178.769 137.931 179.182C138.956 179.549 139.527 179.734 139.537 179.695C139.548 179.656 138.998 179.394 137.994 178.959C136.902 178.499 135.463 177.894 133.725 177.163C130.112 175.672 125.111 173.653 119.576 171.456C114.044 169.261 109.025 167.304 105.383 165.917C103.624 165.261 102.167 164.717 101.062 164.304C100.037 163.936 99.4655 163.752 99.4536 163.789Z" fill="#BFBFAF"/>
<path d="M65.3276 199.61C65.4299 199.723 71.6704 192.292 79.2609 183.011C86.8556 173.729 92.9261 166.113 92.8227 165.997C92.7194 165.883 86.481 173.313 78.8864 182.597C71.2959 191.877 65.2233 199.494 65.3276 199.61Z" fill="#BFBFAF"/>
<path d="M59.6068 152.984C59.5939 153.023 60.041 153.255 60.8567 153.64C61.6723 154.028 62.8596 154.565 64.3341 155.213C67.2799 156.509 71.3693 158.237 75.9157 160.05C80.4631 161.863 84.6052 163.414 87.6156 164.49C89.1218 165.028 90.3438 165.449 91.1923 165.724C92.0418 166 92.5157 166.132 92.5266 166.094C92.5376 166.055 92.0835 165.844 91.2539 165.5C90.327 165.127 89.1446 164.653 87.7289 164.084C84.6529 162.869 80.5823 161.26 76.0826 159.48C71.5918 157.676 67.5293 156.045 64.4573 154.812C63.0395 154.254 61.8552 153.786 60.9252 153.42C60.0877 153.103 59.6197 152.944 59.6068 152.984Z" fill="#BFBFAF"/>
<path d="M99.4536 163.789C99.4774 163.82 99.9182 163.419 100.695 162.666C101.543 161.844 102.648 160.771 103.982 159.475C106.845 156.74 110.669 153.085 114.896 149.044C119.168 144.98 123.005 141.251 125.722 138.471C127.082 137.082 128.169 135.941 128.904 135.131C129.64 134.324 130.037 133.864 130.012 133.832C129.989 133.801 129.548 134.203 128.77 134.957C127.924 135.778 126.818 136.853 125.484 138.146C122.621 140.882 118.797 144.537 114.569 148.579C110.298 152.642 106.462 156.371 103.746 159.151C102.385 160.539 101.298 161.681 100.563 162.49C99.8264 163.298 99.4297 163.76 99.4536 163.789Z" fill="#BFBFAF"/>
<path d="M61.2551 153.641C61.264 153.639 61.2511 153.527 61.2164 153.311C61.1737 153.062 61.12 152.746 61.0524 152.355C60.8885 151.474 60.661 150.247 60.3719 148.69C59.7499 145.469 58.8636 140.885 57.7728 135.237C57.6346 134.527 57.4926 133.801 57.3485 133.059C57.2174 132.315 57.0117 131.548 56.972 130.809C56.8875 129.3 57.5323 127.69 58.7036 126.792C59.2829 126.313 59.9655 126.13 60.7226 125.944C61.4628 125.746 62.2149 125.545 62.9789 125.341C64.5049 124.933 66.0757 124.513 67.6863 124.083C74.1314 122.348 81.2103 120.443 88.6419 118.443C96.0726 116.426 103.15 114.505 109.594 112.756C111.203 112.317 112.772 111.888 114.297 111.472C115.054 111.287 115.826 111 116.525 110.93C117.241 110.867 117.958 111.057 118.577 111.43C119.197 111.8 119.713 112.365 120.075 113.025C120.455 113.68 120.587 114.449 120.771 115.225C121.126 116.758 121.467 118.23 121.794 119.637C123.101 125.221 124.164 129.755 124.91 132.94C125.281 134.474 125.573 135.682 125.783 136.547C125.88 136.932 125.959 137.24 126.022 137.484C126.079 137.693 126.112 137.799 126.12 137.797C126.129 137.794 126.113 137.683 126.073 137.468C126.024 137.221 125.961 136.908 125.882 136.518C125.696 135.643 125.435 134.426 125.104 132.88C124.396 129.684 123.389 125.134 122.147 119.53C121.832 118.12 121.501 116.645 121.157 115.11C120.984 114.363 120.843 113.501 120.425 112.769C120.029 112.032 119.46 111.405 118.775 110.987C118.093 110.569 117.296 110.351 116.496 110.417C115.679 110.499 114.969 110.773 114.194 110.956C112.666 111.365 111.096 111.784 109.485 112.215C103.04 113.951 95.9593 115.856 88.5247 117.857C81.0961 119.873 74.0211 121.794 67.578 123.542C65.9694 123.982 64.4006 124.409 62.8755 124.826C62.1135 125.034 61.3624 125.24 60.6232 125.442C59.901 125.623 59.0932 125.844 58.4642 126.378C57.1687 127.386 56.4702 129.172 56.5726 130.835C56.6282 131.683 56.8398 132.413 56.975 133.159C57.125 133.899 57.272 134.624 57.4171 135.333C58.5746 140.962 59.5144 145.532 60.1752 148.743C60.5049 150.29 60.7643 151.507 60.9511 152.382C61.0385 152.769 61.11 153.08 61.1647 153.324C61.2164 153.536 61.2462 153.643 61.2551 153.641Z" fill="#E3E3E2"/>
<path d="M156.438 15.8231L87.6345 0.927185L77.3563 55.0584L148.809 69.1089L156.438 15.8231Z" fill="#E3E3E2"/>
<path d="M87.6345 0.927175C87.6275 0.934115 87.6683 1.01046 87.7537 1.15388C87.859 1.32392 87.9862 1.53096 88.1421 1.78196C88.5177 2.36725 89.0284 3.16192 89.6742 4.16593C91.0513 6.26418 92.9986 9.22995 95.398 12.8828C100.301 20.2568 107.045 30.3987 114.541 41.6708L114.673 41.8697L114.865 41.7517C115.287 41.4926 115.742 41.2127 116.198 40.9316C127.315 34.0504 137.374 27.8239 144.703 23.2873C148.309 21.0225 151.241 19.181 153.313 17.8786C154.295 17.2471 155.071 16.7485 155.642 16.3807C155.883 16.2187 156.08 16.0869 156.242 15.9782C156.375 15.8844 156.443 15.8324 156.438 15.8231C156.434 15.8138 156.359 15.8475 156.217 15.9237C156.049 16.0186 155.843 16.1331 155.593 16.2742C155.012 16.6155 154.22 17.0827 153.22 17.6715C151.127 18.9335 148.171 20.716 144.534 22.9102C137.184 27.4075 127.099 33.5785 115.956 40.3984C115.5 40.6806 115.045 40.9594 114.623 41.2196L114.949 41.3006C107.403 30.0725 100.617 19.9711 95.6831 12.6261C93.2301 9.02059 91.239 6.09529 89.8302 4.02479C89.1526 3.0497 88.6162 2.27701 88.2226 1.70907C88.0508 1.47195 87.9097 1.27764 87.7944 1.11686C87.6961 0.986155 87.6424 0.921392 87.6345 0.927175Z" fill="#BFBFAF"/>
<path d="M148.809 69.1088C148.93 69.0186 144.505 60.85 138.928 50.8665C133.349 40.8796 128.73 32.8601 128.61 32.9515C128.491 33.0417 132.915 41.2081 138.494 51.195C144.071 61.1785 148.69 69.2002 148.809 69.1088Z" fill="#BFBFAF"/>
<path d="M77.3563 55.0584C77.4447 55.1891 83.8809 49.453 91.7288 42.2491C99.5797 35.0417 105.87 29.0951 105.784 28.9644C105.695 28.8337 99.2597 34.5686 91.4089 41.776C83.5599 48.9799 77.2679 54.9289 77.3563 55.0584Z" fill="#BFBFAF"/>
<path d="M46.0908 53.2563L0.463562 66.1269L6.93446 102.545L53.9853 88.3101L46.0908 53.2563Z" fill="#E3E3E2"/>
<path d="M0.463609 66.1269C0.45566 66.1442 0.629536 66.2749 0.967338 66.505C1.35581 66.7619 1.84961 67.0881 2.45963 67.4906C3.82575 68.3604 5.7055 69.5576 8.00753 71.0255C12.7715 73.9959 19.2732 78.049 26.4992 82.5543L26.69 82.6734L26.8241 82.4733C27.0208 82.1795 27.2334 81.8637 27.4471 81.5457C32.6105 73.79 37.283 66.7711 40.7147 61.6181C42.363 59.0952 43.7102 57.034 44.6879 55.5361C45.122 54.8525 45.4728 54.2973 45.7489 53.8635C45.9864 53.4784 46.1036 53.269 46.0908 53.2563C46.0768 53.2423 45.9298 53.4274 45.6665 53.7895C45.3715 54.2058 44.9949 54.7369 44.5299 55.3915C43.5205 56.8605 42.1275 58.8824 40.4256 61.3554C36.9641 66.4819 32.2498 73.4615 27.0387 81.1755C26.826 81.4936 26.6135 81.8094 26.4168 82.1031L26.7416 82.0222C19.4868 77.5805 12.9603 73.584 8.17444 70.6541C5.84261 69.2569 3.93702 68.1164 2.55202 67.2871C1.92411 66.9249 1.41543 66.6311 1.01503 66.3998C0.661327 66.2031 0.472551 66.1095 0.463609 66.1269Z" fill="#BFBFAF"/>
<path d="M53.9854 88.31C54.0629 88.1712 49.448 84.5473 43.6815 80.2189C37.911 75.8894 33.1738 72.4933 33.0954 72.6332C33.0178 72.7732 37.6308 76.396 43.4013 80.7255C49.1678 85.0539 53.9079 88.4511 53.9854 88.31Z" fill="#BFBFAF"/>
<path d="M6.93447 102.545C7.06164 102.623 9.68262 97.0756 12.7874 90.1573C15.8943 83.2368 18.3095 77.5654 18.1823 77.4891C18.0562 77.4116 15.4352 82.9569 12.3294 89.8785C9.22359 96.7968 6.8083 102.47 6.93447 102.545Z" fill="#BFBFAF"/>
<path d="M87.4567 362.872C87.4765 362.881 87.5679 362.67 87.7249 362.263C87.9037 361.776 88.1203 361.182 88.3835 360.463C88.9489 358.897 89.7179 356.606 90.6359 353.763C92.473 348.075 94.8008 340.126 97.2658 331.314C99.7338 322.499 101.994 314.534 103.727 308.812C104.579 306.027 105.278 303.739 105.797 302.037C106.02 301.3 106.201 300.691 106.353 300.191C106.473 299.767 106.528 299.538 106.507 299.528C106.488 299.52 106.396 299.729 106.239 300.138C106.062 300.626 105.844 301.218 105.581 301.936C105.014 303.502 104.246 305.793 103.329 308.637C101.49 314.324 99.1645 322.274 96.6966 331.089C94.2305 339.903 90.9816 349.143 89.248 354.868C88.3975 357.648 88.6866 358.661 88.166 360.362C87.9454 361.101 87.7616 361.71 87.6126 362.21C87.4914 362.634 87.4377 362.862 87.4567 362.872Z" fill="#1D2A30"/>
<path d="M194.915 96.4995C194.915 96.4995 195.491 93.2827 196.457 83.9875L205.244 63.9418C205.244 63.9418 203.289 59.7488 198.767 68.6311C196.707 72.6795 189.795 70.9838 190.944 64.6301C192.092 58.2752 199.166 55.4193 203.52 61.6689C203.52 61.6689 206.334 61.9939 206.661 59.4423C206.987 56.8917 200.636 50.5646 195.236 52.4107C191.732 53.6079 189.25 56.3377 189.25 56.3377C189.25 56.3377 190.425 35.273 188.961 35.0844C187.496 34.896 185.445 36.1845 184.334 59.2896C184.334 59.2896 183.724 41.0519 183.416 38.7281C183.118 36.4783 180.407 34.823 180.075 40.6713C180.038 41.3214 179.05 59.241 179.05 59.241C179.05 59.241 177.294 47.394 177.104 46.4456C176.602 43.946 174.486 44.205 174.283 47.5202C174.131 50.0268 173.434 60.7355 173.434 60.7355L172.118 93.7674L171.941 93.7466" fill="#F9AD95"/>
<path d="M166.82 85.6623L199.801 84.6744L203.087 177.596L240.373 158.428L240.431 158.585C242.673 157.419 244.637 156.382 245.68 155.72C266.296 142.627 279.829 141.04 301.946 150.232L344.337 169.986C352.538 174.489 373.897 178.637 381.216 217.949L382.183 222.642L348.317 250.974L325.061 322.332L297.199 393.778L233.166 391.354L199.706 342.813L228.1 279.666L245.746 208.952C233.279 218.582 210.136 231.698 182.427 224.859C152.413 217.448 166.82 85.6623 166.82 85.6623Z" fill="#515FB5"/>
<path d="M298.674 390.217L316.562 344.125L298.589 390.213L298.674 390.217ZM325.276 321.673L325.277 321.671L325.276 321.673ZM227.219 281.624L228.1 279.666L230.652 269.44C230.633 269.437 230.614 269.435 230.596 269.434L227.219 281.624Z" fill="#B2B1B0"/>
<path d="M298.589 390.213L316.562 344.125L325.276 321.673L325.277 321.671C319.794 325.553 315.129 327.76 308.983 329.91C307.257 330.513 305.39 331.027 303.597 331.027C302.154 331.027 300.757 330.694 299.521 329.809C296.75 327.824 296.321 321.931 299.411 320.747C290.456 318.395 281.499 316.042 272.544 313.69C276.189 301.469 270.179 287.527 261.085 280.096C252.006 272.677 241.7 270.555 230.652 269.44L228.1 279.666L227.219 281.624L217.191 317.84L261.989 388.976L298.589 390.213Z" fill="#333E83"/>
<path d="M339.338 254.803C339.338 254.803 356.137 297.579 352.293 318.929C350.147 330.862 316.592 341.058 295.217 344.1L301.621 385.876C301.621 385.876 381.069 377.076 395.958 340.439C404.405 319.655 395.851 268.728 379.768 211.126L339.338 254.803Z" fill="#515FB5"/>
<path d="M347.502 276.443C347.509 276.439 347.485 276.354 347.429 276.189C347.359 275.993 347.273 275.756 347.169 275.467C346.917 274.788 346.575 273.865 346.144 272.701C345.264 270.296 344.024 266.795 342.764 262.363C341.531 257.927 340.284 252.53 339.716 246.402C339.126 240.291 339.347 233.414 340.945 226.558C342.563 219.722 345.489 213.645 349.231 209.316C352.965 204.962 357.3 202.318 361.108 200.977C364.945 199.659 368.238 199.562 370.457 199.823C371.006 199.901 371.499 199.972 371.933 200.034C372.36 200.107 372.714 200.214 373.005 200.274C373.27 200.331 373.486 200.379 373.666 200.418C373.815 200.447 373.894 200.458 373.896 200.447C373.898 200.437 373.824 200.407 373.679 200.359C373.502 200.303 373.289 200.237 373.027 200.155C372.739 200.076 372.386 199.948 371.96 199.858C371.523 199.779 371.029 199.69 370.479 199.59C368.247 199.254 364.908 199.285 361.004 200.57C357.13 201.875 352.71 204.518 348.895 208.922C345.067 213.306 342.085 219.473 340.446 226.398C338.828 233.344 338.62 240.3 339.242 246.461C339.842 252.641 341.134 258.061 342.417 262.497C343.728 266.932 345.021 270.416 345.959 272.796C346.431 273.985 346.806 274.902 347.074 275.517C347.197 275.797 347.298 276.026 347.382 276.215C347.453 276.371 347.493 276.448 347.502 276.443Z" fill="#1D2A30"/>
<path d="M267.676 147.478C267.668 147.459 267.472 147.56 267.105 147.769C266.739 147.98 266.208 148.317 265.563 148.819C264.264 149.807 262.505 151.501 260.771 154.043C259.033 156.576 257.377 159.97 256.063 163.964C254.722 167.948 253.702 172.496 252.61 177.232C250.458 186.696 248.512 195.259 247.082 201.546C246.412 204.609 245.863 207.113 245.464 208.932C245.296 209.757 245.158 210.425 245.049 210.948C244.961 211.412 244.922 211.657 244.94 211.662C244.957 211.667 245.028 211.431 245.151 210.981C245.283 210.464 245.45 209.806 245.66 208.993C246.097 207.187 246.699 204.7 247.435 201.658C248.904 195.38 250.902 186.834 253.11 177.389C254.202 172.646 255.205 168.119 256.508 164.163C257.785 160.197 259.384 156.837 261.06 154.306C262.732 151.767 264.427 150.048 265.677 149.012C266.929 147.972 267.7 147.528 267.676 147.478Z" fill="#1D2A30"/>
<path d="M226.804 220.351C232.537 217.903 238.899 214.414 245.088 209.455C240.339 213.061 234.14 217.089 226.804 220.351Z" fill="#B2B1B0"/>
<path d="M206.359 225.98C206.359 225.98 215.319 225.255 226.804 220.351C234.14 217.089 240.339 213.061 245.089 209.455L248.009 197.47C248.523 195.21 249.082 192.749 249.677 190.132C248.37 189.521 247.09 188.921 245.837 188.333C239.831 198.433 232.379 206.618 223.523 213.876C224.156 214.107 224.756 214.322 225.322 214.532C226.61 215.018 227.729 215.402 228.645 215.709C229.521 216.015 230.22 216.262 230.748 216.445C231.228 216.621 231.478 216.722 231.473 216.743C231.472 216.745 231.468 216.746 231.46 216.746C231.402 216.746 231.15 216.684 230.722 216.564C230.188 216.405 229.478 216.196 228.592 215.935C227.666 215.662 226.537 215.311 225.238 214.855C224.598 214.633 223.91 214.403 223.185 214.153C218.042 218.337 212.432 222.214 206.359 225.98ZM249.787 189.655C250.662 185.797 251.615 181.612 252.61 177.232C253.164 174.827 253.701 172.471 254.269 170.211C251.939 176.746 249.205 182.606 246.073 187.934C247.286 188.498 248.523 189.07 249.787 189.655Z" fill="#333E83"/>
<path d="M248.009 197.47L249.786 190.183C249.749 190.166 249.713 190.149 249.677 190.132C249.082 192.749 248.523 195.21 248.009 197.47ZM249.901 189.707L255.655 166.094C255.211 167.495 254.748 168.869 254.269 170.211C253.701 172.471 253.164 174.827 252.61 177.232C251.615 181.612 250.662 185.797 249.787 189.655C249.824 189.672 249.863 189.689 249.901 189.707Z" fill="#161C1E"/>
<path d="M264.005 397.928H87.0244V309.898C87.0244 293.409 98.5057 280.042 112.669 280.042H238.359C252.523 280.042 264.005 293.409 264.005 309.898V397.928Z" fill="#365462"/>
<path d="M203.886 397.928H262.679C263.41 397.928 264.005 397.236 264.005 396.385V306.747C264.005 291.998 253.735 280.042 241.066 280.042H212.949C207.212 280.042 202.561 285.456 202.561 292.135V396.385C202.561 397.236 203.154 397.928 203.886 397.928Z" fill="#365462"/>
<path d="M250.951 397.928V309.772C250.951 293.352 239.518 280.042 225.415 280.042H243.625C243.625 280.042 264.995 283.348 264.995 314.489C264.995 345.629 264.306 397.928 264.306 397.928H250.951Z" fill="#1D2A30"/>
<path d="M202.561 399.364H351.045V389.553H202.561V399.364Z" fill="#1D2A30"/>
<path d="M81.253 399.364H202.561V389.553H81.253V399.364Z" fill="#365462"/>
<path d="M202.561 394.459C202.57 394.459 202.578 394.339 202.585 394.107C202.59 393.84 202.597 393.501 202.604 393.074C202.61 392.124 202.618 390.796 202.628 389.106C202.626 385.617 202.624 380.642 202.621 374.515C202.566 362.157 202.488 345.156 202.403 326.375C202.358 321.674 202.273 317.09 202.516 312.68C202.768 308.28 203.315 304.04 204.424 300.205C205.492 296.358 207.153 292.964 209.16 290.244C211.199 287.548 213.523 285.497 215.816 284.014C220.44 281.048 224.806 280.324 227.725 280.3C228.462 280.265 229.115 280.316 229.682 280.364C230.249 280.388 230.727 280.45 231.111 280.527C231.472 280.58 231.762 280.625 231.988 280.659C232.187 280.686 232.289 280.695 232.291 280.684C232.293 280.675 232.194 280.644 231.998 280.599C231.774 280.548 231.486 280.485 231.126 280.405C230.743 280.311 230.265 280.229 229.694 280.186C229.126 280.118 228.468 280.048 227.724 280.066C224.781 280.019 220.354 280.68 215.64 283.642C213.303 285.121 210.928 287.183 208.837 289.916C206.776 292.674 205.068 296.128 203.972 300.029C202.832 303.92 202.271 308.208 202.01 312.641C201.758 317.083 201.84 321.687 201.884 326.386C202.03 345.164 202.161 362.165 202.255 374.52C202.327 380.648 202.386 385.622 202.428 389.11C202.459 390.8 202.483 392.127 202.5 393.076C202.514 393.502 202.524 393.84 202.533 394.108C202.542 394.339 202.552 394.459 202.561 394.459Z" fill="#1D2A30"/>
<path d="M82.0826 389.31C82.0826 389.478 109.718 389.666 143.8 389.733C177.893 389.799 205.521 389.719 205.521 389.553C205.522 389.387 177.894 389.198 143.801 389.13C109.719 389.065 82.0836 389.144 82.0826 389.31Z" fill="#1D2A30"/>
<path d="M82.0846 399.753C82.0846 399.918 109.519 399.967 143.354 399.861C177.2 399.753 204.628 399.529 204.628 399.364C204.628 399.198 177.199 399.149 143.353 399.257C109.518 399.364 82.0836 399.586 82.0846 399.753Z" fill="#1D2A30"/>
<path d="M98.0527 378.359C98.0576 378.353 98.0626 378.21 98.0685 377.936C98.0725 377.64 98.0775 377.243 98.0855 376.728C98.0934 375.645 98.1063 374.086 98.1232 372.068C98.142 368 98.1709 362.089 98.2087 354.621L98.0527 354.803C116.027 354.83 144.931 354.874 177.475 354.923C177.362 354.789 177.737 355.224 177.221 354.621V354.628V354.64V354.664V354.712V354.807V354.998V355.38V356.14L177.222 357.66C177.222 358.672 177.222 359.679 177.222 360.683C177.222 362.693 177.222 364.689 177.223 366.669C177.224 370.629 177.226 374.529 177.227 378.359L177.48 378.064C154.847 378.116 135.029 378.163 120.845 378.196C113.756 378.232 108.076 378.262 104.144 378.281C102.198 378.298 100.686 378.311 99.6374 378.32C99.1357 378.327 98.7481 378.334 98.462 378.338C98.1967 378.345 98.0527 378.359 98.0527 378.359C98.0467 378.366 98.1749 378.37 98.4302 378.377C98.7084 378.382 99.085 378.387 99.5738 378.396C100.61 378.406 102.104 378.418 104.026 378.434C107.942 378.456 113.603 378.483 120.668 378.519C134.896 378.553 154.777 378.6 177.48 378.653H177.734V378.359C177.736 374.529 177.737 370.629 177.737 366.669C177.738 364.689 177.738 362.693 177.738 360.683C177.738 359.679 177.739 358.672 177.739 357.66V356.14V355.38V354.998V354.807V354.712V354.664V354.64V354.628V354.621C177.221 354.02 177.592 354.455 177.475 354.32C144.931 354.37 116.027 354.413 98.0527 354.44L97.8957 354.441L97.8967 354.621C97.9335 362.135 97.9633 368.082 97.9831 372.177C98 374.177 98.012 375.721 98.0208 376.795C98.0278 377.298 98.0338 377.685 98.0378 377.972C98.0428 378.233 98.0467 378.364 98.0527 378.359Z" fill="#1D2A30"/>
<path d="M130.145 360.733V371.285H129.226V362.846L125.665 369.943H125.212L121.652 362.891V371.285H120.732V360.733H121.522L125.458 368.558L129.355 360.733H130.145Z" fill="#1D2A30"/>
<path d="M138.43 367.563L136.255 361.895L134.079 367.563H138.43ZM138.78 368.468H133.731L132.642 371.285H131.646L135.79 360.733H136.734L140.877 371.285H139.866L138.78 368.468Z" fill="#1D2A30"/>
<path d="M142.377 360.733H143.335V371.285H142.377V360.733Z" fill="#1D2A30"/>
<path d="M146.286 360.733H147.245V370.321H152.318V371.285H146.286V360.733Z" fill="#1D2A30"/>
<path d="M108.277 255.907V238.576H136.109V308.147C139.576 310.541 141.907 314.928 141.907 319.96C141.907 327.546 136.624 333.697 130.108 333.697C123.591 333.697 118.309 327.546 118.309 319.96C118.309 314.657 120.895 310.064 124.674 307.774V255.907H108.277Z" fill="#515FB5"/>
<path d="M125.224 319.74C125.224 322.67 127.263 325.043 129.779 325.043C132.294 325.043 134.333 322.67 134.333 319.74C134.333 316.811 132.294 314.436 129.779 314.436C127.263 314.436 125.224 316.811 125.224 319.74Z" fill="#1D2A30"/>
<path d="M300.721 150.716C300.704 150.708 300.614 150.954 300.459 151.426C300.29 151.896 300.093 152.609 299.874 153.539C299.445 155.4 299.036 158.192 299.199 161.657C299.381 165.096 300.137 169.24 302.088 173.253C304.008 177.257 307.231 180.991 311.379 183.227C315.505 185.489 320.065 186.017 323.915 184.972C327.79 183.966 330.895 181.696 333.109 179.41C335.319 177.079 336.696 174.736 337.489 173.047C337.884 172.199 338.166 171.525 338.321 171.052C338.49 170.583 338.571 170.334 338.554 170.326C338.497 170.296 338.163 171.291 337.316 172.93C336.476 174.568 335.07 176.838 332.868 179.091C330.659 181.298 327.596 183.479 323.813 184.428C320.059 185.417 315.625 184.888 311.598 182.683C307.551 180.499 304.4 176.874 302.502 172.978C300.572 169.071 299.79 165.012 299.565 161.629C299.358 158.222 299.705 155.456 300.071 153.595C300.432 151.728 300.78 150.74 300.721 150.716Z" fill="#1D2A30"/>
<path d="M216.15 329.777L202.589 329.569L203.114 383.203L215.705 383.787L216.15 329.777Z" fill="#EEEEEE"/>
<path d="M215.705 383.787C215.808 383.674 213.116 380.092 209.691 375.787C206.263 371.479 203.401 368.082 203.296 368.196C203.192 368.308 205.884 371.89 209.311 376.196C212.736 380.501 215.599 383.9 215.705 383.787Z" fill="#1D2A30"/>
<path d="M202.589 347.63C202.696 347.741 205.817 343.902 209.561 339.056C213.307 334.208 216.255 330.189 216.15 330.077C216.043 329.967 212.923 333.805 209.177 338.654C205.432 343.5 202.483 347.52 202.589 347.63Z" fill="#1D2A30"/>
<path d="M317.747 94.5249C317.75 96.1443 316.862 97.7186 315.584 98.3572C314.305 98.9968 312.713 98.6625 311.707 97.5463C309.795 95.4226 310.447 91.698 311.641 88.9531C312.835 86.2095 314.483 83.4103 314.132 80.3623C313.863 78.0293 312.469 76.1219 311.536 74.0329C309.913 70.395 309.722 65.8538 311.294 62.1848C312.868 58.517 316.259 55.912 319.782 55.9941C323.376 56.0775 327.154 58.6963 330.346 56.7669C332.658 55.3696 333.627 52.0903 335.636 50.1575C338.756 47.1593 343.453 48.1564 347.133 50.1135C350.813 52.0706 354.349 54.8744 358.39 55.1035C361.765 55.2955 365.003 53.6461 368.35 53.1117C375.606 51.9515 383.282 56.65 386.575 64.2657C389.868 71.8826 388.538 81.8591 383.415 87.9537C381.575 90.1434 379.207 91.8889 376.588 92.1688" fill="#1D2A30"/>
<path d="M313.251 182.921C323.775 186.956 335.121 180.314 338.624 168.077C340.629 161.075 342.305 155.172 342.305 155.172C342.305 155.172 358.306 158.02 363.311 140.335C368.315 122.65 376.248 83.2888 376.248 83.2888L376.731 80.9095C361.475 65.5856 339.774 63.0234 320.846 71.0695L319.876 74.7338L300.052 154.904C297.442 166.83 303.21 179.072 313.251 182.921Z" fill="#F9AD95"/>
<path d="M362.843 109.374C361.141 107.822 361.837 104.802 363.994 104.464C364.553 104.376 365.137 104.565 365.581 104.968C367.287 106.517 366.589 109.543 364.429 109.882C363.871 109.968 363.287 109.777 362.843 109.374Z" fill="#1D2A30"/>
<path d="M369.192 107.154C368.87 107.374 367.737 105.481 365.64 104.698C363.552 103.878 361.675 104.617 361.528 104.217C361.452 104.035 361.841 103.57 362.666 103.224C363.478 102.879 364.751 102.727 366.056 103.227C367.36 103.726 368.307 104.729 368.783 105.569C369.272 106.417 369.346 107.061 369.192 107.154Z" fill="#1D2A30"/>
<path d="M343.555 99.4513C344.394 100.58 344.289 102.287 343.32 103.265C342.349 104.241 340.883 104.118 340.044 102.99C339.204 101.861 339.31 100.153 340.279 99.1773C341.249 98.1987 342.716 98.3212 343.555 99.4513Z" fill="#1D2A30"/>
<path d="M346.344 101.203C346.021 101.422 344.888 99.5301 342.791 98.747C340.703 97.9269 338.826 98.6648 338.679 98.2658C338.603 98.0841 338.993 97.6169 339.817 97.2733C340.629 96.9275 341.903 96.776 343.207 97.2757C344.511 97.7754 345.458 98.7782 345.934 99.6168C346.423 100.465 346.497 101.109 346.344 101.203Z" fill="#1D2A30"/>
<path d="M349.293 124.473C349.329 124.287 350.709 124.469 352.912 124.911C353.476 125.045 353.963 125.069 354.113 124.72C354.326 124.353 354.295 123.586 354.224 122.722C354.125 120.916 354.022 119.075 353.914 117.143C353.54 109.219 353.501 102.783 353.827 102.762C354.154 102.741 354.721 109.144 355.095 117.068C355.171 119.001 355.243 120.844 355.313 122.653C355.317 123.468 355.46 124.465 354.901 125.4C354.611 125.864 354.088 126.083 353.7 126.063C353.306 126.057 352.998 125.944 352.73 125.863C350.574 125.177 349.258 124.66 349.293 124.473Z" fill="#1D2A30"/>
<path d="M341.737 124.665C339.959 122.343 346.751 130.608 351.091 131.937C351.091 131.937 347.402 135.598 343.512 132.108C339.476 128.486 341.737 124.665 341.737 124.665Z" fill="white"/>
<path d="M342.399 154.925C342.399 154.925 332.514 152.294 324.303 141.037C324.303 141.037 325.536 155.543 341.187 159.538L342.399 154.925Z" fill="#F6865E"/>
<path d="M317.627 86.8514C317.323 86.6062 306.53 81.6798 304.299 97.3218C302.069 112.963 316.376 110.412 316.463 109.967C316.55 109.524 317.627 86.8514 317.627 86.8514Z" fill="#F9AD95"/>
<path d="M313.129 103.684C313.077 103.622 312.868 103.829 312.442 103.964C312.028 104.094 311.345 104.108 310.686 103.668C309.354 102.787 308.534 99.9325 308.871 97.1009C309.038 95.6701 309.488 94.3641 310.081 93.3255C310.654 92.2613 311.405 91.5847 312.14 91.5742C312.878 91.521 313.313 92.1168 313.414 92.5875C313.532 93.0606 313.402 93.3567 313.469 93.3972C313.502 93.4434 313.796 93.1913 313.78 92.5227C313.768 92.2023 313.663 91.8032 313.391 91.4412C313.112 91.0733 312.659 90.8259 312.153 90.7934C311.105 90.6767 310.015 91.6066 309.363 92.746C308.652 93.8807 308.119 95.3427 307.929 96.9494C307.566 100.116 308.531 103.334 310.38 104.363C311.285 104.832 312.121 104.654 312.581 104.363C313.051 104.058 313.172 103.721 313.129 103.684Z" fill="#F6865E"/>
<path d="M377.98 91.876C377.98 91.876 367.432 94.0819 357.035 83.1152C350.212 75.9194 341.509 70.6529 339.023 71.8455C336.54 73.037 333.819 82.4108 325.293 82.6272C325.293 82.6272 321.464 100.956 315.403 98.2819C309.342 95.6065 319.993 68.7559 319.993 68.7559L337.096 61.4584L354.573 63.2223L372.312 71.5633L380.954 82.3032L377.98 91.876Z" fill="#1D2A30"/>
<path d="M322.538 53.1973C322.507 53.3766 324.187 53.6704 325.779 55.1046C327.393 56.5054 328.087 58.3099 328.226 58.2278C328.36 58.2104 327.834 56.1469 326.092 54.6246C324.364 53.0782 322.517 53.0434 322.538 53.1973Z" fill="#1D2A30"/>
<path d="M330.654 48.1494C330.591 48.1194 330.303 48.6919 329.941 49.6798C329.582 50.6652 329.152 52.081 328.95 53.7235C328.731 55.3637 328.846 56.8883 329.041 57.9432C329.247 59.0027 329.502 59.6077 329.559 59.5845C329.717 59.5406 329.024 56.9855 329.461 53.8103C329.881 50.656 330.827 48.2246 330.654 48.1494Z" fill="#1D2A30"/>
<path d="M289.817 328.96L221.013 314.065L210.734 368.196L282.189 382.245L289.817 328.96Z" fill="#E3E3E2"/>
<path d="M221.013 314.065C221.006 314.07 221.046 314.146 221.132 314.29C221.237 314.462 221.365 314.667 221.52 314.919C221.896 315.503 222.408 316.298 223.052 317.303C224.431 319.4 226.378 322.365 228.777 326.02C233.681 333.394 240.424 343.534 247.919 354.807L248.052 355.006L248.244 354.889C248.665 354.628 249.121 354.348 249.577 354.069C260.692 347.188 270.752 340.96 278.083 336.423C281.687 334.159 284.618 332.317 286.692 331.014C287.674 330.384 288.451 329.883 289.021 329.518C289.262 329.355 289.458 329.223 289.62 329.114C289.755 329.02 289.82 328.969 289.817 328.96C289.812 328.95 289.738 328.985 289.596 329.061C289.427 329.155 289.223 329.269 288.973 329.41C288.391 329.753 287.599 330.219 286.599 330.808C284.506 332.07 281.548 333.853 277.91 336.047C270.564 340.543 260.478 346.715 249.335 353.535C248.879 353.816 248.423 354.097 248.003 354.356L248.327 354.436C240.783 343.21 233.995 333.107 229.061 325.762C226.608 322.158 224.617 319.231 223.208 317.161C222.532 316.186 221.995 315.414 221.601 314.846C221.429 314.608 221.289 314.414 221.173 314.255C221.074 314.122 221.02 314.058 221.013 314.065Z" fill="#1D2A30"/>
<path d="M282.189 382.246C282.308 382.155 277.883 373.986 272.307 364.004C266.727 354.017 262.11 345.996 261.989 346.087C261.87 346.178 266.294 354.344 271.873 364.332C277.449 374.315 282.069 382.336 282.189 382.246Z" fill="#1D2A30"/>
<path d="M210.734 368.196C210.824 368.326 217.259 362.59 225.108 355.385C232.959 348.178 239.25 342.231 239.162 342.1C239.073 341.971 232.638 347.706 224.787 354.912C216.94 362.117 210.647 368.065 210.734 368.196Z" fill="#1D2A30"/>
<path d="M288.011 341.042C288.011 341.042 287.522 351.526 283.186 351.41C278.851 351.292 263.525 341.586 261.745 344.96C259.963 348.334 264.667 353.018 264.667 353.018C264.667 353.018 259.268 352.923 261.276 356.684C263.284 360.444 269.29 378.041 274.845 379.694C282.834 382.071 301.204 382.999 301.204 382.999L295.529 346.132L288.011 341.042Z" fill="#F9AD95"/>
<path d="M262.997 350.824C262.973 350.855 263.179 351.12 263.574 351.575C263.967 352.033 264.564 352.662 265.321 353.411C266.834 354.909 269.036 356.838 271.637 358.664C274.241 360.486 276.736 361.848 278.582 362.706C279.504 363.135 280.26 363.452 280.793 363.642C281.323 363.836 281.62 363.925 281.632 363.886C281.66 363.798 280.524 363.266 278.726 362.314C276.929 361.363 274.484 359.953 271.903 358.148C269.328 356.339 267.113 354.483 265.55 353.079C263.987 351.676 263.05 350.755 262.997 350.824Z" fill="#F6865E"/>
<path d="M263.235 361.213C263.187 361.251 263.72 362.32 264.815 363.855C265.904 365.388 267.604 367.344 269.758 369.084C271.915 370.817 274.088 371.978 275.705 372.624C277.325 373.275 278.372 373.478 278.385 373.412C278.407 373.316 277.399 372.97 275.835 372.225C274.271 371.487 272.17 370.289 270.052 368.588C267.938 366.881 266.234 365.016 265.089 363.574C263.94 362.13 263.305 361.155 263.235 361.213Z" fill="#F6865E"/>
</svg>
