<svg viewBox="0 0 500 500" fill="none" xmlns="http://www.w3.org/2000/svg">
<path d="M164.434 212.473L139.864 210.616C138.01 222.787 146.084 259.469 146.084 259.469L165.359 240.775C156.089 221.727 164.434 212.473 164.434 212.473Z" fill="#515FB5"/>
<path d="M130.955 273.497C130.955 273.497 182.891 394.131 117.828 399.687C52.7651 405.242 34.5025 341.373 34.5025 341.373L25.8998 336.75L52.786 316.215L89.2694 336.75L101.259 274.985" fill="#515FB5"/>
<path d="M103.391 321.6C98.8006 321.6 94.4749 324.433 90.6708 329.441L89.2521 336.751L86.9014 335.425C80.1764 348.124 75.8229 368.398 75.8229 391.243V392.128C86.9501 397.802 100.786 401.112 117.825 399.667C122.846 399.239 127.172 398.124 130.875 396.437C130.928 394.723 130.954 392.992 130.951 391.243C130.955 352.779 118.614 321.6 103.391 321.6V321.6Z" fill="#1B1B2F"/>
<path d="M121.677 276.092C121.677 276.092 128.695 406.846 108.871 468.75L113.012 475.695H77.7492C77.7492 475.695 73.8964 309.389 73.8964 273.497L121.677 276.092Z" fill="#515FB5"/>
<path d="M110.463 174.937V191.929L92.0165 197.1V168.426L110.463 163.255V174.937Z" fill="#EDEEEF"/>
<path d="M100.042 180.814C100.315 180.814 100.536 180.562 100.536 180.251C100.536 179.94 100.315 179.688 100.042 179.688C99.7693 179.688 99.5482 179.94 99.5482 180.251C99.5482 180.562 99.7693 180.814 100.042 180.814Z" fill="#1B1B2F"/>
<path d="M107.619 180.814C107.892 180.814 108.113 180.562 108.113 180.251C108.113 179.94 107.892 179.688 107.619 179.688C107.346 179.688 107.125 179.94 107.125 180.251C107.125 180.562 107.346 180.814 107.619 180.814Z" fill="#1B1B2F"/>
<path d="M105.397 183.608V174.937H109.205" stroke="#1B1B2F" stroke-miterlimit="10"/>
<path d="M99.1136 174.937H102.921" stroke="#1B1B2F" stroke-miterlimit="10"/>
<path d="M93.2335 179.382V182.394C92.5492 182.394 91.8929 182.084 91.409 181.531C90.9251 180.979 90.6533 180.23 90.6533 179.449C90.6533 179.358 90.6533 179.271 90.6533 179.183C90.8098 177.354 93.2335 177.545 93.2335 179.382V179.382Z" fill="#EDEEEF"/>
<path d="M93.2335 182.393C92.5492 182.393 91.8929 182.082 91.4091 181.53C90.9252 180.978 90.6534 180.229 90.6534 179.448" stroke="#1B1B2F" stroke-miterlimit="10"/>
<path d="M103.731 185.747C103.389 185.747 103.049 185.671 102.732 185.521C102.415 185.372 102.128 185.153 101.885 184.876C101.642 184.6 101.45 184.272 101.319 183.91C101.187 183.549 101.12 183.162 101.12 182.771" stroke="#515FB5" stroke-miterlimit="10"/>
<path d="M110.463 191.929L92.0164 197.1" stroke="#1B1B2F" stroke-miterlimit="10"/>
<path d="M105.397 183.616L103.731 184.084" stroke="#1B1B2F" stroke-miterlimit="10" stroke-linecap="round"/>
<path d="M93.9011 178.544C93.9011 178.544 102.594 174.044 105.147 170.211V172.854C105.147 172.854 109.841 170.87 110.999 168.556" stroke="#1B1B2F" stroke-miterlimit="10"/>
<path d="M110.463 173.187C110.463 173.187 114.535 171.203 113.433 166.901C112.331 162.6 103.731 159.298 97.3227 161.346C97.3227 161.346 78.4829 165.548 92.0164 187.969" stroke="#1B1B2F" stroke-miterlimit="10"/>
<path d="M130.955 227.528V273.496L73.8964 289.5V238.31C73.8968 229.489 76.4885 220.923 81.2572 213.981C86.0258 207.04 92.6962 202.123 100.202 200.016C103.858 198.992 107.67 198.929 111.35 199.834C115.03 200.738 118.482 202.585 121.445 205.236C124.407 207.886 126.803 211.271 128.45 215.134C130.098 218.996 130.954 223.236 130.955 227.532V227.528Z" fill="#EDEEEF"/>
<path d="M77.7492 475.695C77.7492 475.695 73.8964 309.389 73.8964 273.497" stroke="#1B1B2F" stroke-miterlimit="10"/>
<path d="M121.677 276.092C121.677 276.092 128.695 406.846 108.871 468.751L113.012 475.695" stroke="#1B1B2F" stroke-miterlimit="10"/>
<path d="M88.2366 206.322C88.2366 206.322 63.1273 222.791 67.5365 258.235C71.9457 293.679 131.285 280.457 145.89 260.882L147.051 252.413C147.051 252.413 155.296 240.906 150.594 243.35C145.893 245.794 98.3937 249.771 98.3937 249.771L99.117 237.334" stroke="#1B1B2F" stroke-miterlimit="10"/>
<path d="M123.986 207.838C123.986 207.838 138.869 221.188 143.073 245.001" stroke="#1B1B2F" stroke-miterlimit="10"/>
<path d="M133.531 280.382C133.531 280.382 156.318 286.679 166.287 257.179C174.633 232.457 168.141 220.671 165.129 219.878C162.118 219.084 161.186 223.846 161.186 223.846" stroke="#1B1B2F" stroke-miterlimit="10"/>
<path d="M206.423 139.606L191.275 157.97V139.606H206.423Z" fill="#1B1B2F"/>
<path d="M266.636 142.52H166.407V62.1813H266.636V142.52Z" fill="#1B1B2F"/>
<path d="M166.407 62.187V142.526H191.275" fill="#1B1B2F"/>
<path d="M239.361 106.029H233.201V98.6732H239.361V106.029Z" fill="#1B1B2F"/>
<path d="M219.601 106.029H213.441V98.6732H219.601V106.029Z" fill="#1B1B2F"/>
<path d="M199.842 106.029H193.681V98.6732H199.842V106.029Z" fill="#1B1B2F"/>
<path d="M253.89 103.115L269.038 121.479V103.115H253.89Z" fill="#E2E2E2"/>
<path d="M269.038 121.484V103.115" stroke="#1B1B2F" stroke-miterlimit="10"/>
<path d="M193.677 25.6953H293.906V106.034H193.677V25.6953Z" fill="#EDEEEF"/>
<path d="M293.906 25.6953V106.034H269.038" stroke="#1B1B2F" stroke-miterlimit="10"/>
<path d="M220.952 62.187H227.112V69.5426H220.952V62.187Z" fill="#515FB5"/>
<path d="M240.712 62.187H246.872V69.5426H240.712V62.187Z" fill="#515FB5"/>
<path d="M260.471 62.187H266.632V69.5426H260.471V62.187Z" fill="#515FB5"/>
<path d="M450.905 422.055C438.387 329.802 365.086 289.778 365.086 289.778L334.556 307.778C333.481 307.778 340.28 340.825 340.28 340.825L385.501 363.686L427.392 437.599L459.251 425.032L450.905 422.055Z" fill="#EDEEEF"/>
<path d="M388.057 306.532C379.566 301.83 370.082 299.968 360.702 301.161C351.323 302.355 342.431 306.556 335.057 313.278C336.552 322.671 340.29 340.837 340.29 340.837L385.512 363.699L403.594 395.607C410.854 386.259 415.222 374.447 416.026 361.989C416.829 349.53 414.024 337.116 408.041 326.655C401.819 319.4 395.14 312.674 388.057 306.532V306.532Z" fill="#1B1B2F"/>
<path d="M411.487 343.552C410.016 296.369 360.719 288.818 360.719 288.818L303.654 272.814C303.654 272.814 294.244 343.949 366.22 345.139L332.181 422.056L363.476 437.599L360.722 426.818C360.722 426.818 412.377 371.727 411.487 343.552Z" fill="#EDEEEF"/>
<path d="M303.654 272.814C303.654 272.814 294.244 343.949 366.22 345.139L332.181 422.056" stroke="#1B1B2F" stroke-miterlimit="10"/>
<path d="M303.654 226.846V272.814L360.712 288.818V237.627C360.712 228.807 358.12 220.241 353.351 213.299C348.583 206.357 341.912 201.44 334.406 199.334C330.751 198.309 326.938 198.247 323.258 199.151C319.578 200.055 316.126 201.902 313.164 204.553C310.201 207.204 307.806 210.588 306.158 214.451C304.51 218.314 303.654 222.554 303.654 226.85V226.846Z" fill="#515FB5"/>
<path d="M320.48 174.255V181.588C320.478 184.344 321.286 187.021 322.776 189.189C324.266 191.358 326.351 192.893 328.697 193.548L338.927 196.417V167.743L330.422 165.362C329.24 165.031 328.007 165.011 326.818 165.304C325.628 165.596 324.512 166.194 323.554 167.051C322.597 167.908 321.822 169.002 321.29 170.251C320.757 171.499 320.48 172.87 320.48 174.259V174.255Z" fill="#EDEEEF"/>
<path d="M320.48 181.587C320.478 184.343 321.286 187.02 322.776 189.189C324.266 191.358 326.351 192.893 328.697 193.548L338.927 196.417" stroke="#1B1B2F" stroke-miterlimit="10"/>
<path d="M330.901 180.132C331.174 180.132 331.395 179.88 331.395 179.568C331.395 179.257 331.174 179.005 330.901 179.005C330.629 179.005 330.408 179.257 330.408 179.568C330.408 179.88 330.629 180.132 330.901 180.132Z" fill="#1B1B2F"/>
<path d="M323.324 180.132C323.597 180.132 323.818 179.88 323.818 179.568C323.818 179.257 323.597 179.005 323.324 179.005C323.052 179.005 322.831 179.257 322.831 179.568C322.831 179.88 323.052 180.132 323.324 180.132Z" fill="#1B1B2F"/>
<path d="M325.546 182.925V174.254H321.739" stroke="#1B1B2F" stroke-miterlimit="10"/>
<path d="M331.83 174.254H328.022" stroke="#1B1B2F" stroke-miterlimit="10"/>
<path d="M337.71 178.699V181.711C338.394 181.711 339.05 181.4 339.534 180.848C340.018 180.296 340.29 179.547 340.29 178.766C340.29 178.675 340.29 178.588 340.29 178.5C340.133 176.671 337.71 176.861 337.71 178.699V178.699Z" fill="#EDEEEF"/>
<path d="M337.71 181.711C338.394 181.711 339.05 181.401 339.534 180.849C340.018 180.296 340.29 179.548 340.29 178.767" stroke="#1B1B2F" stroke-miterlimit="10"/>
<path d="M327.629 183.941C327.95 184.305 328.384 184.51 328.836 184.51C329.288 184.51 329.722 184.305 330.042 183.941" stroke="#515FB5" stroke-miterlimit="10"/>
<path d="M325.546 182.933L327.212 183.401" stroke="#1B1B2F" stroke-miterlimit="10" stroke-linecap="round"/>
<path d="M320.091 177.544C320.091 177.544 324.677 174.818 325.452 170.211C325.457 170.176 325.471 170.143 325.494 170.119C325.516 170.095 325.545 170.08 325.576 170.077C325.607 170.074 325.638 170.084 325.663 170.104C325.689 170.124 325.708 170.153 325.717 170.187C326.28 172.171 328.61 177.441 337.71 178.699" stroke="#1B1B2F" stroke-miterlimit="10"/>
<path d="M320.48 180.239C320.48 180.239 315.918 177.941 316.728 171.858C317.538 165.774 333.186 149.195 343.736 165.092C354.286 180.989 371.728 211.016 371.728 211.016L360.218 213.032C357.585 213.493 354.895 213.299 352.333 212.463C349.772 211.627 347.399 210.169 345.377 208.189C343.355 206.209 341.732 203.754 340.62 200.991C339.507 198.228 338.931 195.224 338.93 192.183V183.941" stroke="#1B1B2F" stroke-miterlimit="10"/>
<path d="M469.672 261.763H378.881L385.112 199.604H475.9L469.672 261.763Z" fill="#EDEEEF"/>
<path d="M466.069 256.46H375.278L381.506 194.302H472.297L469.183 225.381L466.069 256.46Z" stroke="#1B1B2F" stroke-miterlimit="10"/>
<path d="M426.884 280.024L429.245 256.461H414.724L412.363 280.024H426.884Z" fill="#1B1B2F"/>
<path d="M349.366 280.023H473.608" stroke="#1B1B2F" stroke-miterlimit="10"/>
<path d="M311.356 206.207C311.356 206.207 287.835 228.25 281.924 263.877C276.013 299.504 322.886 290.941 345.21 280.456" stroke="#1B1B2F" stroke-miterlimit="10"/>
<path d="M306.786 261.763C306.786 261.763 359.815 251.049 363.466 277.564" stroke="#1B1B2F" stroke-miterlimit="10"/>
<path d="M346.928 206.207C346.928 206.207 363.57 225.806 367.959 261.762C367.959 261.762 384.837 262.425 385.512 277.564" stroke="#1B1B2F" stroke-miterlimit="10"/>
<path d="M301.539 217.822C301.539 217.822 293.973 199.901 287.714 215.377C281.455 230.853 254.106 332.837 282.967 349.901C311.829 366.964 354.032 357.591 354.032 357.591" stroke="#1B1B2F" stroke-miterlimit="10"/>
<path d="M322.139 360.159V475.012H287.714" stroke="#1B1B2F" stroke-miterlimit="10"/>
<path d="M28.691 475.479H257.895" stroke="#1B1B2F" stroke-miterlimit="10"/>
</svg>
