<svg width="500" height="500" viewBox="0 0 500 500" fill="none" xmlns="http://www.w3.org/2000/svg">
<path d="M173.141 216.025L151.301 214.374C149.653 225.193 156.83 257.799 156.83 257.799L173.964 241.182C165.724 224.251 173.141 216.025 173.141 216.025Z" fill="#515FB5"/>
<path d="M143.382 270.268C143.382 270.268 189.548 377.499 131.714 382.437C73.8803 387.375 57.6468 330.603 57.6468 330.603L50 326.493L73.8988 308.24L106.329 326.493L116.986 271.591" fill="#515FB5"/>
<path d="M118.881 313.027C114.801 313.027 110.956 315.545 107.574 319.996L106.313 326.494L104.224 325.315C98.2458 336.603 94.3761 354.625 94.3761 374.932V375.718C104.267 380.762 116.565 383.704 131.711 382.42C136.174 382.039 140.02 381.048 143.311 379.548C143.358 378.025 143.381 376.486 143.379 374.932C143.382 340.741 132.413 313.027 118.881 313.027Z" fill="#1B1B2F"/>
<path d="M135.135 272.575C135.135 272.575 141.373 388.801 123.752 443.827L127.433 450H96.0883C96.0883 450 92.6636 302.172 92.6636 270.268L135.135 272.575Z" fill="#515FB5"/>
<path d="M125.167 182.659V197.763L108.77 202.36V176.872L125.167 172.275V182.659Z" fill="#EDEEEF"/>
<path d="M115.904 187.883C116.147 187.883 116.343 187.659 116.343 187.383C116.343 187.106 116.147 186.882 115.904 186.882C115.662 186.882 115.465 187.106 115.465 187.383C115.465 187.659 115.662 187.883 115.904 187.883Z" fill="#1B1B2F"/>
<path d="M122.639 187.883C122.882 187.883 123.078 187.659 123.078 187.383C123.078 187.106 122.882 186.882 122.639 186.882C122.397 186.882 122.2 187.106 122.2 187.383C122.2 187.659 122.397 187.883 122.639 187.883Z" fill="#1B1B2F"/>
<path d="M120.664 190.367V182.659H124.049" stroke="#1B1B2F" stroke-miterlimit="10"/>
<path d="M115.079 182.659H118.463" stroke="#1B1B2F" stroke-miterlimit="10"/>
<path d="M109.852 186.61V189.288C109.244 189.288 108.66 189.012 108.23 188.521C107.8 188.03 107.559 187.364 107.559 186.67C107.559 186.589 107.559 186.512 107.559 186.434C107.698 184.808 109.852 184.978 109.852 186.61Z" fill="#EDEEEF"/>
<path d="M109.852 189.287C109.244 189.287 108.66 189.01 108.23 188.52C107.8 188.029 107.559 187.363 107.559 186.669" stroke="#1B1B2F" stroke-miterlimit="10"/>
<path d="M119.183 192.268C118.879 192.268 118.577 192.201 118.295 192.067C118.013 191.935 117.758 191.74 117.542 191.494C117.326 191.249 117.156 190.957 117.039 190.635C116.922 190.314 116.862 189.97 116.862 189.623" stroke="#515FB5" stroke-miterlimit="10"/>
<path d="M125.167 197.763L108.77 202.36" stroke="#1B1B2F" stroke-miterlimit="10"/>
<path d="M120.664 190.374L119.183 190.79" stroke="#1B1B2F" stroke-miterlimit="10" stroke-linecap="round"/>
<path d="M110.446 185.866C110.446 185.866 118.173 181.866 120.442 178.458V180.808C120.442 180.808 124.614 179.044 125.644 176.987" stroke="#1B1B2F" stroke-miterlimit="10"/>
<path d="M125.167 181.104C125.167 181.104 128.787 179.34 127.807 175.516C126.828 171.693 119.183 168.758 113.487 170.578C113.487 170.578 96.7405 174.314 108.77 194.243" stroke="#1B1B2F" stroke-miterlimit="10"/>
<path d="M143.382 229.407V270.267L92.6636 284.493V238.991C92.664 231.15 94.9677 223.536 99.2065 217.365C103.445 211.195 109.375 206.825 116.046 204.952C119.296 204.042 122.685 203.986 125.956 204.79C129.227 205.594 132.295 207.235 134.929 209.592C137.562 211.947 139.692 214.956 141.156 218.39C142.621 221.823 143.381 225.592 143.382 229.411V229.407Z" fill="#EDEEEF"/>
<path d="M96.0883 450C96.0883 450 92.6636 302.172 92.6636 270.268" stroke="#1B1B2F" stroke-miterlimit="10"/>
<path d="M135.135 272.575C135.135 272.575 141.373 388.801 123.752 443.828L127.433 450" stroke="#1B1B2F" stroke-miterlimit="10"/>
<path d="M105.41 210.557C105.41 210.557 83.0911 225.196 87.0104 256.702C90.9296 288.208 143.676 276.455 156.658 259.055L157.69 251.527C157.69 251.527 165.019 241.299 160.839 243.471C156.661 245.643 114.439 249.179 114.439 249.179L115.082 238.123" stroke="#1B1B2F" stroke-miterlimit="10"/>
<path d="M137.188 211.905C137.188 211.905 150.417 223.771 154.154 244.939" stroke="#1B1B2F" stroke-miterlimit="10"/>
<path d="M145.672 276.388C145.672 276.388 165.927 281.986 174.789 255.763C182.207 233.788 176.437 223.312 173.759 222.607C171.083 221.901 170.254 226.134 170.254 226.134" stroke="#1B1B2F" stroke-miterlimit="10"/>
<path d="M210.465 151.254L197 167.578V151.254H210.465Z" fill="#1B1B2F"/>
<path d="M263.988 153.844H174.895V82.432H263.988V153.844Z" fill="#1B1B2F"/>
<path d="M174.895 82.4371V153.85H197" fill="#1B1B2F"/>
<path d="M239.743 121.408H234.268V114.869H239.743V121.408Z" fill="#1B1B2F"/>
<path d="M222.179 121.408H216.703V114.869H222.179V121.408Z" fill="#1B1B2F"/>
<path d="M204.615 121.408H199.139V114.869H204.615V121.408Z" fill="#1B1B2F"/>
<path d="M252.658 118.818L266.123 135.141V118.818H252.658Z" fill="#E2E2E2"/>
<path d="M266.123 135.146V118.818" stroke="#1B1B2F" stroke-miterlimit="10"/>
<path d="M199.135 50H288.228V121.412H199.135V50Z" fill="#EDEEEF"/>
<path d="M288.228 50V121.412H266.123" stroke="#1B1B2F" stroke-miterlimit="10"/>
<path d="M223.38 82.4371H228.855V88.9754H223.38V82.4371Z" fill="#515FB5"/>
<path d="M240.944 82.4371H246.42V88.9754H240.944V82.4371Z" fill="#515FB5"/>
<path d="M258.508 82.4371H263.984V88.9754H258.508V82.4371Z" fill="#515FB5"/>
<path d="M427.782 402.32C416.655 320.317 351.499 284.74 351.499 284.74L324.361 300.74C323.405 300.74 329.449 330.115 329.449 330.115L369.645 350.436L406.882 416.137L435.201 404.966L427.782 402.32Z" fill="#EDEEEF"/>
<path d="M371.917 299.633C364.37 295.453 355.94 293.798 347.602 294.859C339.265 295.92 331.361 299.654 324.806 305.629C326.135 313.979 329.458 330.126 329.458 330.126L369.655 350.448L385.728 378.811C392.181 370.501 396.064 360.002 396.779 348.928C397.492 337.853 394.999 326.819 389.681 317.52C384.15 311.071 378.213 305.092 371.917 299.633Z" fill="#1B1B2F"/>
<path d="M392.744 332.539C391.436 290.599 347.617 283.887 347.617 283.887L296.892 269.661C296.892 269.661 288.528 332.892 352.507 333.95L322.25 402.321L350.068 416.137L347.62 406.554C347.62 406.554 393.535 357.584 392.744 332.539Z" fill="#EDEEEF"/>
<path d="M296.892 269.661C296.892 269.661 288.528 332.892 352.507 333.95L322.25 402.321" stroke="#1B1B2F" stroke-miterlimit="10"/>
<path d="M296.893 228.801V269.661L347.611 283.887V238.384C347.611 230.544 345.307 222.93 341.068 216.759C336.829 210.588 330.9 206.218 324.228 204.346C320.979 203.434 317.589 203.379 314.318 204.183C311.047 204.986 307.979 206.628 305.346 208.985C302.712 211.341 300.583 214.349 299.118 217.783C297.653 221.217 296.893 224.986 296.893 228.804V228.801Z" fill="#515FB5"/>
<path d="M311.849 182.053V188.571C311.847 191.021 312.565 193.401 313.89 195.328C315.214 197.256 317.068 198.62 319.153 199.202L328.246 201.753V176.265L320.686 174.148C319.636 173.854 318.54 173.836 317.483 174.097C316.425 174.356 315.433 174.888 314.581 175.65C313.731 176.411 313.042 177.384 312.569 178.494C312.095 179.603 311.849 180.822 311.849 182.057V182.053Z" fill="#EDEEEF"/>
<path d="M311.849 188.57C311.847 191.02 312.565 193.4 313.89 195.328C315.214 197.256 317.068 198.62 319.153 199.202L328.246 201.753" stroke="#1B1B2F" stroke-miterlimit="10"/>
<path d="M321.112 187.277C321.355 187.277 321.551 187.053 321.551 186.776C321.551 186.499 321.355 186.275 321.112 186.275C320.87 186.275 320.674 186.499 320.674 186.776C320.674 187.053 320.87 187.277 321.112 187.277Z" fill="#1B1B2F"/>
<path d="M314.377 187.277C314.62 187.277 314.816 187.053 314.816 186.776C314.816 186.499 314.62 186.275 314.377 186.275C314.135 186.275 313.939 186.499 313.939 186.776C313.939 187.053 314.135 187.277 314.377 187.277Z" fill="#1B1B2F"/>
<path d="M316.352 189.76V182.052H312.968" stroke="#1B1B2F" stroke-miterlimit="10"/>
<path d="M321.938 182.052H318.553" stroke="#1B1B2F" stroke-miterlimit="10"/>
<path d="M327.164 186.003V188.681C327.772 188.681 328.356 188.404 328.786 187.914C329.216 187.423 329.458 186.757 329.458 186.063C329.458 185.982 329.458 185.905 329.458 185.826C329.318 184.201 327.164 184.37 327.164 186.003Z" fill="#EDEEEF"/>
<path d="M327.164 188.681C327.772 188.681 328.356 188.405 328.786 187.914C329.216 187.423 329.458 186.758 329.458 186.064" stroke="#1B1B2F" stroke-miterlimit="10"/>
<path d="M318.204 190.663C318.489 190.986 318.875 191.169 319.277 191.169C319.678 191.169 320.064 190.986 320.348 190.663" stroke="#515FB5" stroke-miterlimit="10"/>
<path d="M316.352 189.767L317.833 190.183" stroke="#1B1B2F" stroke-miterlimit="10" stroke-linecap="round"/>
<path d="M311.503 184.977C311.503 184.977 315.58 182.554 316.268 178.458C316.273 178.427 316.285 178.398 316.306 178.377C316.325 178.355 316.351 178.342 316.379 178.339C316.406 178.337 316.434 178.346 316.456 178.363C316.479 178.381 316.496 178.407 316.504 178.437C317.005 180.201 319.076 184.885 327.164 186.003" stroke="#1B1B2F" stroke-miterlimit="10"/>
<path d="M311.849 187.372C311.849 187.372 307.794 185.33 308.514 179.922C309.234 174.514 323.143 159.778 332.521 173.908C341.899 188.039 357.403 214.73 357.403 214.73L347.172 216.522C344.831 216.931 342.44 216.759 340.163 216.016C337.886 215.273 335.777 213.977 333.98 212.217C332.182 210.457 330.74 208.275 329.751 205.819C328.762 203.362 328.25 200.692 328.249 197.989V190.663" stroke="#1B1B2F" stroke-miterlimit="10"/>
<path d="M444.464 259.838H363.761L369.3 204.586H450L444.464 259.838Z" fill="#EDEEEF"/>
<path d="M441.261 255.124H360.558L366.094 199.873H446.797L444.029 227.499L441.261 255.124Z" stroke="#1B1B2F" stroke-miterlimit="10"/>
<path d="M406.43 276.07L408.529 255.125H395.621L393.523 276.07H406.43Z" fill="#1B1B2F"/>
<path d="M337.525 276.069H447.963" stroke="#1B1B2F" stroke-miterlimit="10"/>
<path d="M303.739 210.455C303.739 210.455 282.831 230.049 277.577 261.717C272.323 293.386 313.988 285.774 333.831 276.454" stroke="#1B1B2F" stroke-miterlimit="10"/>
<path d="M299.677 259.838C299.677 259.838 346.813 250.315 350.059 273.883" stroke="#1B1B2F" stroke-miterlimit="10"/>
<path d="M335.358 210.455C335.358 210.455 350.151 227.876 354.052 259.837C354.052 259.837 369.055 260.427 369.655 273.883" stroke="#1B1B2F" stroke-miterlimit="10"/>
<path d="M295.013 220.779C295.013 220.779 288.287 204.85 282.724 218.606C277.16 232.363 252.85 323.015 278.504 338.183C304.159 353.35 341.673 345.019 341.673 345.019" stroke="#1B1B2F" stroke-miterlimit="10"/>
<path d="M313.324 347.301V449.393H282.724" stroke="#1B1B2F" stroke-miterlimit="10"/>
</svg>
